<svg xmlns="http://www.w3.org/2000/svg" width="1200" height="857.5" viewBox="0 0 960.000000 686.000000"><g transform="matrix(.1 0 0-.1 0 686)"><path d="m3390 6537c-202-58-437-313-480-524-17-80-7-181 28-290 47-146 90-212 231-356 134-137 244-219 341-255l55-20-3-44c-1-23-10-90-19-148-23-150-21-261 6-331 24-62 46-97 56-88 10 11-22 120-44 150-19 26-20 30-5 71 33 93 54 205 54 291v87h67 67l63 68c35 37 71 75 80 85 10 10 41 34 69 52 42 28 70 37 148 48 53 8 99 17 102 20 12 12-58 37-103 37-48 0-143-36-157-59-4-6-13-11-20-11-9 0-6 18 10 68 14 38 24 91 24 123 0 61 7 69 56 69 44 0 112 21 134 42 12 11 20 22 18 24-10 10-203-28-220-43-25-22-32-11-47 72-23 130-70 205-130 205-15 0-48-13-73-29-34-21-47-37-52-61-12-64-7-65 47-13 56 54 66 56 109 15 39-36 52-84 51-185l-1-88 29 6c41 9 44-9 18-96-50-167-113-266-187-290-56-18-152-3-235 39-56 28-99 62-190 151-66 64-139 143-164 176-55 71-105 175-128 265-20 75-23 225-6 287 27 100 187 286 303 353 118 68 253 88 337 50 24-11 81-57 127-102 82-80 85-84 114-175 17-51 30-100 30-107 0-17 9-20 119-40 141-27 234-16 331 37 82 46 117 51 205 33 80-16 158-54 168-79 3-8 34-20 73-27 45-9 107-33 182-72 96-49 122-58 167-58 122 0 360-58 475-115 101-51 185-117 315-250 66-67 143-137 170-155 149-98 183-147 192-272 17-243-118-483-327-582-87-41-166-42-263-1-66 27-69 29-65 57 3 18 0 32-7 35-7 2-50-5-96-15-65-16-104-19-171-15l-88 6v47c0 46 0 47 43 59 121 36 251 133 316 236 66 104 21 97-88-15-79-80-166-132-243-145-40-8-39-9-54 98-6 42-4 47 14 47 10 0 31 9 44 20 30 23 125 209 135 260l6 35-28-25c-15-14-61-76-102-139-41-63-78-110-82-105-5 5-16 41-26 80l-18 71 36 84c46 109 54 139 36 150-26 16-36 9-49-33-7-24-21-59-31-79-10-20-15-40-11-44 4-4-13-5-38-1l-45 7-48-97c-26-53-46-99-43-102 11-10 74 68 91 113 11 29 24 45 35 45 13 0 20-23 38-127 50-292 58-485 27-622-19-80-35-81-35-1 0 64-17 118-41 131-12 6-23 8-26 5-8-8 24-142 46-192l20-44-25-97c-14-55-26-135-28-182l-3-83-59-50c-97-82-95-78-42-78 44 0 47 2 58 35 16 48 26 44 34-12 8-56 32-107 39-83 8 26 28 192 37 300 6 75 18 138 44 220 20 63 44 146 54 183 15 61 19 67 37 62 11-3 76-10 145-14 110-8 137-13 220-46 87-34 101-37 172-33 97 6 181 46 274 131 150 137 228 300 243 507 6 81 7 84 21 60 26-45 18-142-23-274-38-124-43-146-28-146 23 0 112 239 126 337 8 64 3 74-93 177-70 75-74 81-52 84 71 11 160-45 261-161 79-91 116-159 156-293 38-127 37-215-5-361-32-108-32-114-22-200 6-48 22-137 36-196l26-109-38-40c-63-65-172-137-242-158-99-31-331-23-485 16-94 23-91 18-66 115 42 159 28 317-36 394l-24 30-1-172c0-94-4-183-10-197-11-31-111-84-174-92-52-8-153 21-231 64l-50 27-8 65c-11 89-2 255 19 336 16 65 16 67-4 86-33 34-48 17-62-69-21-136-24-280-6-356 9-38 16-70 16-73 0-3-21-2-46 2-58 8-53-4 16-42 49-27 78-69 67-98-17-44 24-259 83-441 21-62 33-124 39-202 10-129 24-156 99-200 39-23 60-28 137-31 88-4 95-3 168 31 63 29 80 42 94 71 9 20 14 38 11 41-3 3-48-13-99-36-149-65-235-63-317 6l-41 36 6 97c5 94 4 101-35 217-39 116-64 237-78 379-7 64-6 68 12 63 100-31 192-34 276-11l58 17 51-48 51-47 3-92c5-122 33-243 109-471 47-141 66-211 70-270 12-138 27-174 100-243 84-78 148-104 277-110 111-5 195 12 261 54 24 15 84 66 133 113 50 48 131 121 182 164 131 110 192 182 309 359 97 147 120 176 129 166 2-2-2-46-10-98-22-143-21-151 26-204l41-46h91c145 0 248 31 326 97l33 29 5 154c3 94 1 178-6 214-6 32-42 130-81 218-39 88-82 200-97 250-22 72-35 97-66 128-47 47-127 79-216 87-39 3-86 15-115 29-55 26-152 33-203 13-44-16-99-75-173-184-37-55-80-112-95-127-31-32-165-111-173-103-3 3 12 29 32 59 43 62 44 72 12 68-22-3-23 2-41 140-10 78-21 154-25 169-5 17 0 56 15 112 73 272 45 488-85 663-42 56-207 200-247 215-14 5-59 16-101 25-134 28-170 51-352 229-168 163-262 239-342 275-89 39-287 89-395 100-90 9-120 16-178 45-155 76-362 167-431 191-123 41-216 31-366-41-46-22-87-35-113-35-49 0-203 25-212 34-4 3-14 37-24 75-28 110-58 170-93 188-17 9-56 38-86 66-75 68-145 99-234 104-39 1-91-3-116-10m3970-2339c31-47 30-56-7-100-20-24-59-92-88-153-56-119-121-206-194-259-56-41-301-179-307-173-3 3 0 33 5 68 5 35 13 106 16 156l7 93 42 11c125 33 202 103 311 282l59 97h71c62 0 72-3 85-22m279-44c65-29 81-50 107-144 9-36 50-137 91-224 93-202 103-241 103-404v-129l-46-43c-81-74-191-109-290-91-32 6-62 15-66 19-4 4 2 36 12 71 29 90 27 169-5 215l-25 37 49 63c48 63 81 151 66 176-14 22-207-212-343-415-83-126-130-184-217-270-132-132-313-296-371-336-97-66-278-78-384-25-114 57-157 123-170 255-10 103-17 132-80 326-36 110-54 183-65 275-9 69-20 141-25 160-16 57-15 58 63 37 57-16 105-20 237-21 156-1 169 1 245 27 83 30 134 56 173 90 12 11 23 16 23 11 4-32-5-162-22-304-10-91-19-210-19-265 0-97 21-230 38-247 5-5 12 79 16 189 4 109 10 216 14 237 7 36 10 40 52 50 49 13 75 26 245 130 168 103 250 195 300 336 17 49 112 209 135 227 25 21 98 15 159-13"/><path d="m4555 6000c-38-21-80-39-93-40-13 0-64-10-113-21-76-18-95-20-131-10-98 28-132 33-176 26-41-6-45-8-29-20 10-7 61-27 115-45 125-41 215-40 280 3 38 24 42 25 42 9 0-32 12-32 44-1 44 43 103 76 166 92l55 14-32 17c-44 22-48 21-128-24"/><path d="m4927 5730c-88-23-175-84-219-155-38-63-20-60 79 14 43 32 95 64 116 71 62 20 155 9 227-27l62-31 13 32c8 17 11 34 7 38-4 3-36 18-72 33-72 29-155 39-213 25"/><path d="m5198 5490c-15-4-41-18-57-29-33-23-76-79-68-87 2-3 29 9 58 27 126 73 159 117 67 89"/><path d="m4185 5444c22-19 79-59 126-90l85-56-9-66c-12-82 3-231 32-315 11-32 43-95 71-140 27-45 52-96 56-113 4-19-3-66-16-120-20-79-22-105-17-224 4-77 16-185 30-251l23-117-24-53c-64-145-79-214-88-404-8-197-9-243-3-385 4-87 1-106-34-225-53-178-48-168-101-183-84-22-180-96-263-204l-44-57 24-38c13-21 43-76 67-123 50-96 126-179 229-248 69-46 129-56 167-28 19 14 19 15-1 22-159 57-272 166-365 352l-42 84 63 65c69 70 147 114 235 134l53 12 20 86c11 48 25 126 32 174 10 75 16 91 38 108 14 12 27 16 29 10 2-6-1-66-7-133-6-67-7-126-2-131 11-11 18 18 31 128 13 116 13 235 0 235-5 0-10-3-10-7 0-5-14-24-31-43l-31-35 6 225c9 323 18 400 62 512 65 166 66 173 44 227-51 121-65 318-33 487 26 142 24 153-50 299-73 145-84 190-90 358l-4 107 36-7c20-5 70-8 111-8 62 0 80 4 108 23 17 13 32 26 32 30 0 4-48 7-107 8-147 0-199 14-289 75-84 56-132 79-166 79-21-1-19-4 17-36"/><path d="m4716 5432c-3-5 28-26 71-46 42-20 105-62 140-92 44-39 69-54 85-52 36 5 32 30-14 90-34 45-54 61-98 78-62 25-174 38-184 22"/><path d="m4216 5334c-21-20-20-30 5-55 18-18 23-19 42-6 28 18 32 40 12 61-21 20-39 20-59 0"/><path d="m3930 5150c0-69-21-148-81-299-74-188-81-200-155-280-53-57-63-72-44-66 41 13 78 34 115 66l35 31v-84c0-193-45-399-112-513-113-192-122-218-134-410-8-115-3-134 53-223 20-32 33-65 33-86 0-67 11-96 36-96 30 0 44 27 44 86 0 38-7 58-36 99-19 29-46 81-59 116-21 60-22 73-15 176 9 121 14 134 102 281 93 155 132 295 143 517 5 98 16 172 45 300 21 94 42 200 46 238l7 67 53-59c40-44 76-71 142-104 74-39 93-54 120-96 34-52 109-121 175-160 20-12 37-18 37-13 0 6-33 50-72 100-40 49-87 109-104 134-26 36-48 53-117 86-55 26-94 52-110 74-15 18-48 62-74 97-62 84-73 87-73 21"/><path d="m3415 5073c-4-16-10-103-14-195l-7-166-63-129-63-128-9-140c-5-77-13-169-18-204-6-35-7-149-4-255l5-191-63-32c-35-18-92-55-125-82l-61-50-29 31c-16 17-128 119-249 227-338 302-359 323-352 352 8 32 49 55 77 43 10-5 113-94 227-199 291-267 357-322 393-330 17-4 34-4 38 0 10 10-260 261-590 548l-78 68-40-31c-118-93-110-134 51-282 318-290 457-416 481-434 25-20 27-24 17-54-35-98 31-223 213-407 89-90 94-93 137-93 24 0 75 10 112 22 58 18 72 20 92 9 13-7 83-70 155-140 191-187 361-328 373-310 5 8 9 18 9 22 0 20-58 80-205 213-88 79-200 181-250 226-49 46-112 102-139 124l-49 42 21 33c23 37 80 76 91 63 4-5 30-38 58-74 73-93 492-487 551-519 25-13 72-7 72 8 0 5-107 106-237 225-291 262-303 275-357 356-31 47-49 66-67 68-36 3-119-48-154-95-16-22-40-44-52-47-13-4-23-10-22-14 0-4 28-25 62-48 34-23 62-47 62-54 0-16-102-52-127-45-9 4-47 40-84 81-72 81-113 108-149 102-21-4-25 4-57 111l-35 116 124 93c68 50 129 92 134 92 6 0 7-23 3-60-4-38-3-60 3-60 17 0 52 105 64 193 11 70 10 100-5 194-14 91-15 123-6 175 6 34 15 136 19 225l8 161 57 120c68 144 88 226 89 357 2 153-18 242-38 168"/><path d="m5718 4981l-32-29 101-7c84-6 105-4 133 10 38 20 32 28-32 44-83 20-134 15-170-18"/><path d="m2250 4990c-25-5-82-28-127-50-144-71-261-205-335-383-60-143-73-212-73-392 0-188 17-262 91-405 85-166 283-326 444-361 86-18 233-7 310 25 96 39 111 53 104 97l-6 36-87-44c-120-61-191-72-297-45-237 60-340 139-423 324-105 232-101 551 9 769 48 95 101 167 167 230 106 101 200 134 362 126 124-5 188-26 273-90 116-87 223-258 254-409 20-94 19-273-1-370-15-75-15-79 5-119 12-22 23-39 26-37 2 3 12 42 21 89 26 124 23 367-5 470-53 195-150 316-369 461-100 65-244 98-343 78"/><path d="m1664 4757l-67-63 41-57c36-47 84-87 107-87 3 0 5 13 5 28 0 22-12 39-50 71-28 23-47 47-44 53 4 6 26 19 51 30 44 19 44 19 79-1l35-21 11 25c6 14 9 26 7 28-36 25-91 57-98 57-5 0-39-28-77-63"/><path d="m4825 4731c-23-10-54-33-69-52-32-38-72-116-64-124 3-3 35 24 70 61l65 67 50-10c77-15 89-4 51 47-25 35-47 37-103 11"/><path d="m4980 4570c0-84-6-97-77-172-29-32-61-74-70-95-22-52-22-161 1-250 30-121 51-84 36 62-5 50-9 113-9 140 0 48 2 51 47 80 57 37 109 103 118 152 7 36-19 137-38 149-4 3-8-27-8-66"/><path d="m3421 4486c-40-54-41-57-41-137 0-45 5-110 11-144 9-56 8-67-9-102-22-42-47-153-40-175 3-7 13 4 25 27 43 83 54 145 62 330 6 142 11 187 25 213 28 54 11 48-33-12"/><path d="m4870 3898c0-47-5-69-20-88-11-14-20-33-20-43 0-38-30-86-100-161-81-88-108-140-139-272-26-112-26-121-5-103 20 17 47 70 69 139 29 89 60 142 116 199 68 68 89 99 89 135 0 17 12 42 30 62 40 46 47 91 21 148-28 64-41 58-41-16"/><path d="m5066 3717c-9-50-25-277-26-367 0-72-3-80-74-230-41-85-80-180-86-210-7-30-36-118-65-195-49-130-53-148-56-243-2-56-1-102 2-102 12 0 29 53 40 123 6 39 31 119 54 177 24 58 57 150 74 205 17 55 62 161 100 235 92 179 101 213 101 375 0 132-13 208-43 249-13 18-15 17-21-17"/><path d="m4880 3508c-11-18-20-38-20-43 0-6-25-89-54-185-49-156-60-205-38-175 91 126 134 233 147 363 8 81-2 93-35 40"/><path d="m4500 2320c-32-16-39-28-60-94l-23-75 129-123c71-67 166-158 211-201l81-79 26 18c15 9 25 20 24 24-2 3-91 91-198 194-107 103-196 197-198 208-2 11-1 31 2 44 5 19 13 24 37 24 25 0 60-29 229-192l198-192-28-75c-16-42-45-118-64-169-126-324-68-730 143-1009 111-147 212-217 386-268 252-73 432-29 610 149 65 65 85 91 73 94-21 4-84-28-177-91-125-84-177-101-306-101-138-1-194 15-340 97-140 79-194 133-262 263-142 273-157 606-40 897 68 167 184 328 289 401 94 64 175 88 314 94 101 4 132 1 198-17 117-32 182-70 262-153 137-141 214-293 249-497 21-115 19-184-6-342-22-134-22-136-3-174 10-21 23-39 29-39 21-2 46 195 47 364 1 176-11 262-56 386-32 87-103 209-151 259-58 59-280 224-342 252-109 50-247 65-361 38-79-19-126-43-228-116-99-71-158-134-189-202-24-52-28-51-39 10-9 54-383 416-426 413-3-1-21-9-40-20"/><path d="m5550 1312c-67-65-74-91-40-147 18-29 277-266 516-472 44-38 98-86 118-106 45-45 65-46 111-6 42 38 60 69 69 124l7 40-83 66c-81 65-131 109-463 413-88 80-164 146-168 146-4 0-35-26-67-58m194-136c161-151 306-277 389-338 37-28 67-54 67-57 0-4-12-23-26-42-14-19-29-40-34-48-6-11-18-5-58 30-55 49-473 429-511 465-20 18-22 28-17 57 5 29 12 37 34 40 15 2 29 5 31 6 2 0 58-50 125-113m518-486c-1-14-11-34-22-45-18-18-21-18-36-3-14 14-14 18 1 47 12 24 22 31 38 29 17-2 21-9 19-28"/></g></svg>